# xmcd
#
# Track frame offsets: 
#        183
#        13358
#        29058
#        42258
#        58533
#        71658
#        87333
#        100645
#        115908
#        132608
#        149195
#        161870
#        175283
#        188270
#
# Disc length: 2703 seconds
#
# Revision: 0
# Processed by: cddbd v1.5.2PL0 Copyright (c) Steve Scherf et al.
# Submitted via: ExactAudioCopy v1.0b3
#
DISCID=d00a8d0e
DTITLE=Billie Holiday - Billie Holiday
DYEAR=1995
DGENRE=
TTITLE0=East of the sun
TTITLE1=Blue Moon
TTITLE2=You go to my head
TTITLE3=These foolish things
TTITLE4=I only have eyes for you
TTITLE5=Solitude
TTITLE6=Love for sale
TTITLE7=Tenderly
TTITLE8=Autumm in New York
TTITLE9=Stormy weather
TTITLE10=Yesterdays
TTITLE11=How deep is the ocean
TTITLE12=My man
TTITLE13=Loverman
EXTD=
EXTT0=
EXTT1=
EXTT2=
EXTT3=
EXTT4=
EXTT5=
EXTT6=
EXTT7=
EXTT8=
EXTT9=
EXTT10=
EXTT11=
EXTT12=
EXTT13=
PLAYORDER=
